<svg width="32.000000" height="32.000000" viewBox="0 0 32 32" fill="none" xmlns="http://www.w3.org/2000/svg" xmlns:xlink="http://www.w3.org/1999/xlink">
	<desc>
			Created with Pixso.
	</desc>
	<defs>
		<clipPath id="clip1_274">
			<rect id="icons/Serving Plate/Line" width="32.000000" height="32.000000" fill="white" fill-opacity="0"/>
		</clipPath>
	</defs>
	<g clip-path="url(#clip1_274)">
		<path id="Shape" d="M26.66 24L5.33 24C5.33 25.47 6.52 26.66 8 26.66L24 26.66C25.47 26.66 26.66 25.47 26.66 24ZM5.33 21.33C3.86 21.33 2.66 22.52 2.66 24C2.66 26.94 5.05 29.33 8 29.33L24 29.33C26.94 29.33 29.33 26.94 29.33 24C29.33 22.52 28.13 21.33 26.66 21.33L5.33 21.33Z" fill="#C19D6D" fill-opacity="1.000000" fill-rule="evenodd"/>
		<path id="Shape" d="M19.54 8.53C19.83 7.97 20 7.33 20 6.66C20 4.45 18.2 2.66 16 2.66C13.79 2.66 12 4.45 12 6.66C12 7.33 12.16 7.97 12.46 8.53C7.56 10.04 4 14.6 4 19.99L4 22.66C4 23.4 4.59 23.99 5.33 23.99L26.66 23.99C27.4 23.99 28 23.4 28 22.66L28 19.99C28 14.6 24.43 10.04 19.54 8.53ZM17.33 6.66C17.33 7.4 16.73 7.99 16 7.99C15.26 7.99 14.66 7.4 14.66 6.66C14.66 5.93 15.26 5.33 16 5.33C16.73 5.33 17.33 5.93 17.33 6.66ZM16 10.66C10.84 10.66 6.66 14.84 6.66 19.99L6.66 21.33L25.33 21.33L25.33 19.99C25.33 14.84 21.15 10.66 16 10.66Z" fill="#C19D6D" fill-opacity="1.000000" fill-rule="evenodd"/>
	</g>
</svg>
