<svg width="32.000000" height="32.000000" viewBox="0 0 32 32" fill="none" xmlns="http://www.w3.org/2000/svg" xmlns:xlink="http://www.w3.org/1999/xlink">
	<desc>
			Created with Pixso.
	</desc>
	<defs>
		<clipPath id="clip1_269">
			<rect id="Linear / Building, Infrastructure / Buildings" rx="3.000000" width="32.000000" height="32.000000" fill="white" fill-opacity="0"/>
		</clipPath>
	</defs>
	<g clip-path="url(#clip1_269)">
		<path id="Vector" d="M29.33 29.33L2.66 29.33" stroke="#C19D6D" stroke-opacity="1.000000" stroke-width="2.000000" stroke-linecap="round"/>
		<path id="Vector" d="M14.67 6.66C14.69 5.01 14.81 4.07 15.44 3.44C16.22 2.66 17.48 2.66 20 2.66L22.66 2.66C25.18 2.66 26.43 2.66 27.21 3.44C28 4.22 28 5.48 28 8L28 29.33" stroke="#C19D6D" stroke-opacity="1.000000" stroke-width="2.000000"/>
		<path id="Vector" d="M4 29.33L4 12C4 9.48 4 8.22 4.78 7.44C5.56 6.66 6.81 6.66 9.33 6.66L14.66 6.66C17.18 6.66 18.43 6.66 19.21 7.44C20 8.22 20 9.48 20 12L20 29.33" stroke="#C19D6D" stroke-opacity="1.000000" stroke-width="2.000000"/>
		<path id="Vector" d="M12 29.33L12 25.33" stroke="#C19D6D" stroke-opacity="1.000000" stroke-width="2.000000" stroke-linecap="round"/>
		<path id="Vector" d="M8 10.66L16 10.66" stroke="#C19D6D" stroke-opacity="1.000000" stroke-width="2.000000" stroke-linecap="round"/>
		<path id="Vector" d="M8 14.66L16 14.66" stroke="#C19D6D" stroke-opacity="1.000000" stroke-width="2.000000" stroke-linecap="round"/>
		<path id="Vector" d="M8 18.66L16 18.66" stroke="#C19D6D" stroke-opacity="1.000000" stroke-width="2.000000" stroke-linecap="round"/>
	</g>
</svg>
