<svg width="32.000000" height="32.000000" viewBox="0 0 32 32" fill="none" xmlns="http://www.w3.org/2000/svg" xmlns:xlink="http://www.w3.org/1999/xlink">
	<desc>
			Created with Pixso.
	</desc>
	<defs>
		<clipPath id="clip1_264">
			<rect id="icons/Fork and Knife/Line" width="32.000000" height="32.000000" fill="white" fill-opacity="0"/>
		</clipPath>
	</defs>
	<g clip-path="url(#clip1_264)">
		<path id="Shape" d="M22.66 2.66C26.34 2.66 29.33 5.65 29.33 9.33L29.33 18.66C29.33 19.27 28.91 19.81 28.32 19.96L24 21.04L24 28C24 28.73 23.4 29.33 22.66 29.33C21.93 29.33 21.33 28.73 21.33 28L21.33 4C21.33 3.26 21.93 2.66 22.66 2.66ZM24 18.29L26.66 17.62L26.66 9.33C26.66 7.59 25.55 6.11 24 5.56L24 18.29Z" fill="#C19D6D" fill-opacity="1.000000" fill-rule="evenodd"/>
		<path id="Shape" d="M5.33 4C5.33 3.26 4.73 2.66 4 2.66C3.26 2.66 2.66 3.26 2.66 4L2.66 9.33C2.66 12.55 4.95 15.24 8 15.86L8 28C8 28.73 8.59 29.33 9.33 29.33C10.06 29.33 10.66 28.73 10.66 28L10.66 15.86C13.7 15.24 16 12.55 16 9.33L16 4C16 3.26 15.4 2.66 14.66 2.66C13.93 2.66 13.33 3.26 13.33 4L13.33 9.33C13.33 11.07 12.22 12.55 10.66 13.1L10.66 4C10.66 3.26 10.06 2.66 9.33 2.66C8.59 2.66 8 3.26 8 4L8 13.1C6.44 12.55 5.33 11.07 5.33 9.33L5.33 4Z" fill="#C19D6D" fill-opacity="1.000000" fill-rule="nonzero"/>
	</g>
</svg>
