<svg width="100.000000" height="100.000000" viewBox="0 0 100 100" fill="none" xmlns="http://www.w3.org/2000/svg" xmlns:xlink="http://www.w3.org/1999/xlink">
	<desc>
			Created with Pixso.
	</desc>
	<defs>
		<clipPath id="clip7_181">
			<rect id="icons/Serving Plate/Filled" width="24.000000" height="24.000000" transform="translate(38.000000 38.000000)" fill="white" fill-opacity="0"/>
		</clipPath>
	</defs>
	<circle id="Ellipse 25" cx="50.000000" cy="50.000000" r="50.000000" fill="#C19D6D" fill-opacity="1.000000"/>
	<g clip-path="url(#clip7_181)">
		<path id="Shape" d="M40.8 56C40.35 56 40 56.35 40 56.8C40 58.56 41.43 60 43.2 60L56.8 60C58.56 60 60 58.56 60 56.8C60 56.35 59.64 56 59.2 56L40.8 56Z" fill="#FFFFFF" fill-opacity="1.000000" fill-rule="nonzero"/>
		<path id="Shape" d="M52.65 44.39C52.87 43.98 53 43.5 53 43C53 41.34 51.65 40 50 40C48.34 40 47 41.34 47 43C47 43.5 47.12 43.98 47.34 44.39C43.67 45.53 41 48.95 41 53L41 53.52C41 53.78 41.21 54 41.47 54L58.52 54C58.78 54 59 53.78 59 53.52L59 53C59 48.95 56.32 45.53 52.65 44.39ZM51 43C51 43.55 50.55 44 50 44C49.44 44 49 43.55 49 43C49 42.44 49.44 42 50 42C50.55 42 51 42.44 51 43Z" fill="#FFFFFF" fill-opacity="1.000000" fill-rule="evenodd"/>
	</g>
	<path id="[Copy] Забронировать стол" d="M82.93 58.48Q83.38 58.87 84.08 58.98Q84.55 59.06 84.98 58.94Q85.51 58.81 85.96 58.39C86.51 57.88 86.87 57.09 87.04 56.01Q87.22 54.88 87.06 53.96Q86.89 53.04 86.55 52.34L85.43 52.87C85.62 53.3 85.76 53.73 85.85 54.18C85.93 54.62 85.93 55.14 85.84 55.73Q85.7 56.61 85.25 57.08C84.94 57.39 84.57 57.51 84.13 57.44Q83.8 57.39 83.55 57.22Q83.21 56.99 83.02 56.56C82.8 56.04 82.77 55.27 82.93 54.24L83.11 53.05L81.89 52.86L81.69 54.13Q81.47 55.57 80.94 56.33Q80.65 56.74 80.26 56.89Q79.94 57.01 79.56 56.95Q79.07 56.87 78.74 56.6Q78.49 56.4 78.34 56.08C78.1 55.6 78.04 54.92 78.18 54.04Q78.29 53.35 78.58 52.58C78.78 52.07 79.02 51.61 79.29 51.21L77.97 51.01Q77.59 51.58 77.34 52.34C77.18 52.84 77.05 53.39 76.96 53.98Q76.65 55.98 77.3 57.13Q77.64 57.7 78.13 58.04Q78.62 58.37 79.26 58.47Q79.87 58.57 80.37 58.38Q80.69 58.27 80.97 58.05Q81.69 57.48 82.04 56.21L82.09 56.22C82.08 56.96 82.24 57.58 82.57 58.07Q82.72 58.31 82.93 58.48Z" fill="#FFFFFF" fill-opacity="1.000000" fill-rule="evenodd"/>
	<path id="[Copy] Забронировать стол" d="M75.65 66.37L72.61 65.92L71.85 67.31L82.47 68.81L83.22 67.43L76.24 59.29L75.48 60.66L77.5 62.98L75.65 66.37ZM80.43 67.19C80.22 67.15 80.06 67.12 79.96 67.1L77.01 66.64L78.44 64.01L80.43 66.24Q80.6 66.43 80.96 66.79C81.2 67.03 81.43 67.25 81.65 67.45C81.51 67.42 81.32 67.37 81.09 67.32C80.87 67.27 80.65 67.23 80.43 67.19Z" fill="#FFFFFF" fill-opacity="1.000000" fill-rule="evenodd"/>
	<path id="[Copy] Забронировать стол" d="M77.21 75.96L70.54 68.51L68.36 70.47Q66.87 71.8 66.74 72.98Q66.71 73.29 66.75 73.59Q66.86 74.43 67.55 75.2Q68.08 75.8 68.75 76.05Q68.78 76.06 68.81 76.08Q68.84 76.09 68.87 76.1Q69.56 76.32 70.4 76.03C70.99 75.84 71.65 75.41 72.38 74.76L73.34 73.9L75.22 76L71.84 79.03L72.71 80L77.21 75.96ZM68.25 72.83Q68.38 72.16 69.3 71.34L70.27 70.47L72.49 72.95L71.68 73.68Q70.69 74.57 70 74.71C69.55 74.8 69.12 74.62 68.7 74.16Q68.24 73.64 68.22 73.11Q68.22 72.97 68.25 72.83Z" fill="#FFFFFF" fill-opacity="1.000000" fill-rule="evenodd"/>
	<path id="[Copy] Забронировать стол" d="M62.48 84.6C63.24 84.84 64.22 84.69 65.41 84.16L67.97 83.02L63.9 73.89L62.52 74.5L64.07 77.97L63.08 78.41Q61.73 79.01 61.12 79.78C60.71 80.29 60.5 80.82 60.47 81.36C60.44 81.91 60.54 82.44 60.77 82.95Q61.19 83.91 61.93 84.35Q62.19 84.51 62.48 84.6ZM66.07 82.47L64.99 82.95Q63.91 83.44 63.22 83.26Q63.07 83.22 62.93 83.15Q62.45 82.91 62.16 82.27Q61.85 81.56 62.02 81.01Q62.08 80.84 62.17 80.68C62.45 80.24 62.98 79.85 63.75 79.51L64.59 79.13L66.07 82.47Z" fill="#FFFFFF" fill-opacity="1.000000" fill-rule="evenodd"/>
	<path id="[Copy] Забронировать стол" d="M48.28 79.9C47.99 80.7 47.89 81.61 47.96 82.64Q48.08 84.19 48.68 85.31Q49.06 86.01 49.63 86.49Q49.96 86.77 50.35 86.98C51.07 87.35 51.94 87.5 52.96 87.43Q54.54 87.31 55.52 86.59C56.18 86.11 56.65 85.48 56.94 84.69Q57.36 83.51 57.25 81.97C57.17 80.94 56.94 80.05 56.55 79.3Q56.19 78.62 55.65 78.14Q55.3 77.84 54.88 77.61Q53.8 77.05 52.22 77.16Q50.69 77.28 49.7 77.99Q49.32 78.27 49.01 78.63Q48.55 79.18 48.28 79.9ZM54.71 79.31Q55.52 80.29 55.65 82.08Q55.79 83.86 55.12 84.94Q54.97 85.19 54.76 85.38Q54.09 86.04 52.86 86.13Q51.64 86.22 50.88 85.66Q50.66 85.5 50.48 85.28Q49.68 84.31 49.55 82.52Q49.42 80.74 50.07 79.65Q50.23 79.39 50.44 79.18Q51.11 78.54 52.31 78.45Q53.49 78.36 54.25 78.89Q54.5 79.06 54.71 79.31Z" fill="#FFFFFF" fill-opacity="1.000000" fill-rule="evenodd"/>
	<path id="[Copy] Забронировать стол" d="M40.27 75.55L38.82 75.11L35.95 84.69L37.4 85.12L38.59 81.15L43.16 82.52L41.97 86.49L43.42 86.93L46.29 77.35L44.84 76.92L43.53 81.29L38.96 79.92L40.27 75.55Z" fill="#FFFFFF" fill-opacity="1.000000" fill-rule="evenodd"/>
	<path id="[Copy] Забронировать стол" d="M30.58 81.77L31.69 82.6L37.63 74.56L36.24 73.52L27.19 76.94L27.14 76.91C27.23 76.81 27.37 76.64 27.58 76.39C27.79 76.14 28.02 75.85 28.27 75.54Q28.64 75.07 28.94 74.66L32.06 70.44L30.94 69.62L25 77.66L26.4 78.69L35.41 75.3L35.46 75.33Q35.33 75.48 35.02 75.85C34.81 76.1 34.59 76.38 34.36 76.68C34.12 76.98 33.91 77.26 33.72 77.51L30.58 81.77Z" fill="#FFFFFF" fill-opacity="1.000000" fill-rule="evenodd"/>
	<path id="[Copy] Забронировать стол" d="M19.07 68.85C18.98 69.64 19.31 70.57 20.06 71.64L21.67 73.94L29.86 68.2L28.99 66.97L25.88 69.14L25.26 68.26Q24.41 67.04 23.54 66.59C22.96 66.29 22.4 66.18 21.86 66.25C21.32 66.33 20.82 66.53 20.36 66.85Q19.5 67.45 19.21 68.26Q19.11 68.54 19.07 68.85ZM21.84 71.97L21.17 71Q20.49 70.03 20.53 69.32Q20.54 69.16 20.58 69.02Q20.73 68.49 21.3 68.09Q21.93 67.65 22.51 67.71Q22.69 67.73 22.86 67.8C23.34 67.99 23.83 68.43 24.31 69.12L24.84 69.87L21.84 71.97Z" fill="#FFFFFF" fill-opacity="1.000000" fill-rule="evenodd"/>
	<path id="[Copy] Забронировать стол" d="M20.96 54.04C20.13 53.91 19.21 53.98 18.21 54.25Q16.71 54.66 15.73 55.46Q15.11 55.97 14.74 56.62Q14.53 57 14.41 57.42C14.18 58.2 14.19 59.08 14.46 60.07Q14.88 61.59 15.77 62.43C16.36 62.98 17.08 63.32 17.9 63.45Q19.15 63.64 20.63 63.24C21.63 62.97 22.46 62.57 23.12 62.04Q23.72 61.56 24.09 60.95Q24.33 60.54 24.46 60.08Q24.81 58.92 24.4 57.39Q24 55.9 23.11 55.07Q22.76 54.75 22.35 54.52Q21.72 54.16 20.96 54.04ZM22.76 60.24Q21.96 61.23 20.23 61.7Q18.5 62.16 17.32 61.72Q17.04 61.61 16.81 61.45Q16.04 60.91 15.72 59.73Q15.4 58.54 15.8 57.69Q15.92 57.44 16.1 57.22Q16.9 56.26 18.63 55.79Q20.36 55.32 21.55 55.75Q21.83 55.86 22.08 56.03Q22.84 56.56 23.16 57.73Q23.46 58.87 23.09 59.71Q22.97 59.99 22.76 60.24Z" fill="#FFFFFF" fill-opacity="1.000000" fill-rule="evenodd"/>
	<path id="[Copy] Забронировать стол" d="M14.31 44.29C13.88 44.91 13.6 45.85 13.48 47.11L13.19 50.02L23.15 50.99L23.49 47.42Q23.65 45.8 22.99 44.78Q22.76 44.42 22.45 44.18Q21.86 43.72 20.99 43.63C20.47 43.58 20.04 43.63 19.7 43.79C19.36 43.94 19.09 44.17 18.88 44.48C18.67 44.78 18.52 45.12 18.41 45.51L18.35 45.5C18.3 44.92 18.1 44.45 17.74 44.1Q17.66 44.02 17.57 43.95Q17.08 43.56 16.33 43.49Q15.4 43.4 14.8 43.8Q14.52 43.99 14.31 44.29ZM17.44 45.62C17.66 45.93 17.73 46.48 17.65 47.26L17.49 48.92L14.61 48.64L14.75 47.15Q14.86 45.99 15.25 45.5Q15.37 45.33 15.53 45.23Q15.86 45.02 16.36 45.07Q16.97 45.13 17.31 45.46Q17.38 45.53 17.44 45.62ZM22.04 49.36L18.72 49.04L18.89 47.31Q19.01 46.04 19.5 45.59C19.82 45.29 20.22 45.16 20.69 45.21C21.21 45.26 21.62 45.46 21.9 45.81C22.19 46.16 22.29 46.74 22.21 47.53L22.04 49.36Z" fill="#FFFFFF" fill-opacity="1.000000" fill-rule="evenodd"/>
	<path id="[Copy] Забронировать стол" d="M24.38 35.41L27.44 35.74L28.14 34.32L17.47 33.26L16.77 34.66L24.08 42.52L24.78 41.11L22.67 38.88L24.38 35.41ZM19.57 34.79C19.78 34.82 19.94 34.84 20.05 34.86L23.02 35.21L21.69 37.89L19.61 35.74Q19.44 35.56 19.06 35.22C18.81 34.99 18.57 34.78 18.34 34.58C18.49 34.61 18.67 34.65 18.9 34.69C19.13 34.73 19.35 34.76 19.57 34.79Z" fill="#FFFFFF" fill-opacity="1.000000" fill-rule="evenodd"/>
	<path id="[Copy] Забронировать стол" d="M30.92 31.58L32.01 30.53L25.95 24.29L28.1 22.2L27.19 21.27L21.81 26.5L22.71 27.43L24.86 25.34L30.92 31.58Z" fill="#FFFFFF" fill-opacity="1.000000" fill-rule="evenodd"/>
	<path id="[Copy] Забронировать стол" d="M31.22 18.53L35.62 27.5L38.48 26.1Q40.21 25.25 40.69 24.12C41 23.37 40.96 22.58 40.56 21.76Q40.26 21.16 39.79 20.77Q39.68 20.68 39.56 20.61C39.14 20.33 38.62 20.2 38 20.22C37.37 20.24 36.64 20.46 35.8 20.87L34.39 21.56L32.58 17.86L31.22 18.53ZM39.2 23.87Q38.85 24.5 37.81 25.01L36.42 25.69L34.95 22.7L36.18 22.09Q37.28 21.56 38.02 21.59C38.51 21.61 38.89 21.89 39.16 22.45Q39.44 23.02 39.34 23.51Q39.3 23.69 39.2 23.87Z" fill="#FFFFFF" fill-opacity="1.000000" fill-rule="evenodd"/>
	<path id="[Copy] Забронировать стол" d="" fill="#FFFFFF" fill-opacity="1.000000" fill-rule="evenodd"/>
	<path id="[Copy] Забронировать стол" d="" fill="#FFFFFF" fill-opacity="1.000000" fill-rule="evenodd"/>
	<path id="[Copy] Забронировать стол" d="M54.14 15.18Q54.89 14.82 55.87 14.94Q56.49 15.02 57.03 15.26C57.39 15.43 57.73 15.6 58.04 15.79L58.75 14.61C58.37 14.36 57.95 14.16 57.49 13.99C57.03 13.83 56.54 13.72 56.04 13.65Q54.51 13.46 53.38 13.98C52.62 14.32 52.01 14.85 51.55 15.58Q50.86 16.66 50.67 18.16Q50.48 19.7 50.84 20.91Q51.08 21.72 51.57 22.32Q51.81 22.63 52.12 22.88Q53.04 23.63 54.57 23.82Q55.39 23.93 56.01 23.9Q56.62 23.87 57.23 23.72L57.4 22.42C56.97 22.5 56.56 22.56 56.16 22.59C55.75 22.62 55.34 22.61 54.91 22.55Q53.7 22.4 53.04 21.73Q52.83 21.51 52.67 21.25Q52.02 20.14 52.24 18.37Q52.46 16.6 53.42 15.68Q53.75 15.36 54.14 15.18Z" fill="#FFFFFF" fill-opacity="1.000000" fill-rule="evenodd"/>
	<path id="[Copy] Забронировать стол" d="M61.34 25.69L62.7 26.35L66.5 18.53L69.2 19.84L69.77 18.67L63.01 15.39L62.44 16.56L65.14 17.87L61.34 25.69Z" fill="#FFFFFF" fill-opacity="1.000000" fill-rule="evenodd"/>
	<path id="[Copy] Забронировать стол" d="M74.14 32.8C74.93 32.5 75.7 32 76.44 31.27Q77.55 30.19 78.01 29.01Q78.3 28.26 78.3 27.51Q78.3 27.08 78.21 26.65C78.03 25.86 77.59 25.1 76.87 24.37Q75.76 23.23 74.58 22.95C73.79 22.75 73 22.8 72.21 23.09Q71.04 23.53 69.93 24.61C69.19 25.33 68.67 26.09 68.35 26.87Q68.06 27.58 68.04 28.3Q68.03 28.76 68.13 29.23Q68.4 30.42 69.5 31.55Q70.58 32.65 71.76 32.94Q72.23 33.06 72.69 33.06Q73.41 33.06 74.14 32.8ZM69.54 28.27Q69.76 27.01 71.04 25.76Q72.32 24.5 73.57 24.32Q73.86 24.28 74.14 24.31Q75.08 24.4 75.94 25.28Q76.8 26.16 76.86 27.09Q76.88 27.37 76.83 27.65Q76.6 28.88 75.32 30.13Q74.04 31.39 72.79 31.59Q72.49 31.64 72.19 31.61Q71.27 31.52 70.42 30.65Q69.6 29.81 69.51 28.89Q69.48 28.58 69.54 28.27Z" fill="#FFFFFF" fill-opacity="1.000000" fill-rule="evenodd"/>
	<path id="[Copy] Забронировать стол" d="M75.93 41.48L76.54 42.86L85.69 38.83L83.38 33.59C82.4 33.89 81.47 34.16 80.6 34.41Q79.3 34.78 78.31 35.04C77.65 35.21 77.15 35.33 76.82 35.41C76.43 35.49 76.06 35.56 75.73 35.61C75.39 35.66 75.11 35.65 74.87 35.59C74.62 35.53 74.45 35.38 74.35 35.15Q74.27 34.96 74.23 34.77Q74.19 34.58 74.19 34.39L73.05 34.9C73.06 35.2 73.13 35.51 73.27 35.83Q73.58 36.52 74.07 36.8Q74.56 37.09 75.26 37.09C75.72 37.09 76.26 37.02 76.87 36.88C77.36 36.77 77.93 36.63 78.59 36.45C79.26 36.26 79.95 36.07 80.67 35.86C81.39 35.65 82.06 35.45 82.69 35.27L83.89 37.97L75.93 41.48Z" fill="#FFFFFF" fill-opacity="1.000000" fill-rule="evenodd"/>
</svg>
