<svg width="20.000000" height="20.000000" viewBox="0 0 20 20" fill="none" xmlns="http://www.w3.org/2000/svg" xmlns:xlink="http://www.w3.org/1999/xlink">
	<desc>
			Created with Pixso.
	</desc>
	<defs>
		<clipPath id="clip2_243">
			<rect id="icons/Phone/Line" width="20.000000" height="20.000000" fill="white" fill-opacity="0"/>
		</clipPath>
	</defs>
	<g clip-path="url(#clip2_243)">
		<path id="Shape" d="M3.87 1.96C4.94 0.88 6.72 1.01 7.64 2.22L9.15 4.24C9.9 5.24 9.8 6.63 8.92 7.51L7.8 8.63C7.91 8.91 8.27 9.53 9.35 10.61C10.44 11.7 11.06 12.06 11.34 12.16L12.45 11.05C13.33 10.17 14.73 10.07 15.72 10.81L17.74 12.33C18.96 13.24 19.09 15.02 18.01 16.1C17.66 16.45 17.6 16.51 17.02 17.09C16.42 17.68 15.16 18.24 13.88 18.3C11.88 18.38 9.16 17.5 5.82 14.15C2.47 10.8 1.58 8.09 1.67 6.08C1.72 4.97 2.07 3.75 2.88 2.95C3.46 2.36 3.53 2.29 3.87 1.96ZM3.33 6.16C3.27 7.54 3.86 9.83 6.99 12.97C10.13 16.11 12.42 16.69 13.81 16.63C15.1 16.58 15.8 15.95 15.84 15.91L16.83 14.92C17.19 14.56 17.15 13.97 16.74 13.66L14.72 12.15C14.39 11.9 13.93 11.93 13.63 12.23C13.19 12.67 12.89 12.97 12.3 13.56C11.07 14.78 8.97 12.59 8.17 11.79C7.44 11.06 5.2 8.89 6.4 7.67C6.41 7.67 6.73 7.34 7.74 6.33C8.03 6.04 8.07 5.58 7.82 5.24L6.3 3.22C6 2.82 5.41 2.78 5.05 3.13C4.72 3.46 4.34 3.84 4.05 4.13C3.46 4.72 3.37 5.43 3.33 6.16Z" fill="#FFFFFF" fill-opacity="1.000000" fill-rule="evenodd"/>
	</g>
</svg>
