<svg width="24.000000" height="24.000000" viewBox="0 0 24 24" fill="none" xmlns="http://www.w3.org/2000/svg" xmlns:xlink="http://www.w3.org/1999/xlink">
	<desc>
			Created with Pixso.
	</desc>
	<defs>
		<clipPath id="clip2_130">
			<rect id="icons/Serving Plate/Filled" width="24.000000" height="24.000000" fill="white" fill-opacity="0"/>
		</clipPath>
	</defs>
	<g clip-path="url(#clip2_130)">
		<path id="Shape" d="M2.79 18C2.35 18 2 18.35 2 18.79C2 20.56 3.43 22 5.2 22L18.79 22C20.56 22 22 20.56 22 18.79C22 18.35 21.64 18 21.2 18L2.79 18Z" fill="#FFFFFF" fill-opacity="1.000000" fill-rule="nonzero"/>
		<path id="Shape" d="M14.65 6.39C14.87 5.98 15 5.5 15 5C15 3.34 13.65 2 12 2C10.34 2 9 3.34 9 5C9 5.5 9.12 5.98 9.34 6.39C5.67 7.53 3 10.95 3 15L3 15.52C3 15.78 3.21 16 3.47 16L20.52 16C20.78 16 21 15.78 21 15.52L21 15C21 10.95 18.32 7.53 14.65 6.39ZM13 5C13 5.55 12.55 6 12 6C11.44 6 11 5.55 11 5C11 4.44 11.44 4 12 4C12.55 4 13 4.44 13 5Z" fill="#FFFFFF" fill-opacity="1.000000" fill-rule="evenodd"/>
	</g>
</svg>
