<svg width="18.000000" height="18.000000" viewBox="0 0 18 18" fill="none" xmlns="http://www.w3.org/2000/svg" xmlns:xlink="http://www.w3.org/1999/xlink">
	<desc>
			Created with Pixso.
	</desc>
	<defs>
		<clipPath id="clip2_232">
			<rect id="Instagram - Negative" width="18.000000" height="18.000000" fill="white" fill-opacity="0"/>
		</clipPath>
	</defs>
	<rect id="Instagram - Negative" width="18.000000" height="18.000000" fill="#FFFFFF" fill-opacity="0"/>
	<g clip-path="url(#clip2_232)">
		<path id="Vector" d="M9 1.62C11.4 1.62 11.68 1.63 12.63 1.67C13.51 1.71 13.98 1.85 14.3 1.98C14.72 2.14 15.02 2.34 15.33 2.65C15.65 2.97 15.84 3.26 16.01 3.68C16.13 4 16.28 4.48 16.31 5.35C16.36 6.3 16.37 6.59 16.37 8.99C16.37 11.39 16.36 11.68 16.31 12.62C16.28 13.5 16.13 13.98 16.01 14.29C15.84 14.71 15.65 15.01 15.33 15.33C15.02 15.64 14.72 15.84 14.3 16C13.98 16.12 13.51 16.27 12.63 16.31C11.68 16.35 11.4 16.36 9 16.36C6.59 16.36 6.31 16.35 5.36 16.31C4.48 16.27 4.01 16.12 3.69 16C3.27 15.84 2.97 15.64 2.66 15.33C2.34 15.01 2.15 14.71 1.98 14.29C1.86 13.98 1.71 13.5 1.68 12.62C1.63 11.67 1.62 11.39 1.62 8.99C1.62 6.58 1.63 6.3 1.68 5.35C1.71 4.47 1.86 4 1.98 3.68C2.15 3.26 2.34 2.96 2.66 2.65C2.97 2.33 3.27 2.14 3.69 1.98C4.01 1.85 4.48 1.71 5.36 1.67C6.31 1.63 6.59 1.62 9 1.62ZM9 0C6.55 0 6.25 0.01 5.29 0.05C4.33 0.09 3.67 0.24 3.1 0.47C2.51 0.7 2.01 1 1.51 1.51C1 2.01 0.7 2.51 0.47 3.1C0.24 3.67 0.09 4.33 0.05 5.28C0.01 6.25 0 6.55 0 9C0 11.44 0.01 11.74 0.05 12.7C0.09 13.66 0.24 14.32 0.47 14.89C0.7 15.48 1 15.98 1.51 16.48C2.01 16.98 2.51 17.29 3.1 17.52C3.67 17.74 4.33 17.9 5.28 17.94C6.24 17.98 6.55 17.99 8.99 17.99C11.43 17.99 11.74 17.98 12.7 17.94C13.66 17.9 14.31 17.74 14.88 17.52C15.47 17.29 15.98 16.98 16.48 16.48C16.98 15.98 17.28 15.48 17.51 14.89C17.73 14.32 17.89 13.66 17.93 12.71C17.97 11.75 17.98 11.44 17.98 9C17.98 6.56 17.97 6.25 17.93 5.29C17.89 4.33 17.73 3.68 17.51 3.11C17.29 2.51 16.99 2.01 16.48 1.51C15.98 1.01 15.48 0.7 14.89 0.47C14.32 0.25 13.66 0.09 12.71 0.05C11.74 0.01 11.44 0 9 0Z" fill="#FFFFFF" fill-opacity="1.000000" fill-rule="nonzero"/>
		<path id="Vector" d="M9 4.37C6.44 4.37 4.37 6.44 4.37 9C4.37 11.55 6.44 13.62 9 13.62C11.55 13.62 13.62 11.55 13.62 9C13.62 6.44 11.55 4.37 9 4.37ZM9 11.99C7.34 11.99 6 10.65 6 9C6 7.34 7.34 6 9 6C10.65 6 11.99 7.34 11.99 9C11.99 10.65 10.65 11.99 9 11.99Z" fill="#FFFFFF" fill-opacity="1.000000" fill-rule="nonzero"/>
		<path id="Vector" d="M14.88 4.19C14.88 4.79 14.4 5.27 13.8 5.27C13.2 5.27 12.72 4.78 12.72 4.19C12.72 3.59 13.21 3.11 13.8 3.11C14.4 3.11 14.88 3.59 14.88 4.19Z" fill="#FFFFFF" fill-opacity="1.000000" fill-rule="nonzero"/>
	</g>
</svg>
