<svg width="24.000000" height="24.000000" viewBox="0 0 24 24" fill="none" xmlns="http://www.w3.org/2000/svg" xmlns:xlink="http://www.w3.org/1999/xlink">
	<desc>
			Created with Pixso.
	</desc>
	<defs>
		<clipPath id="clip11_99">
			<rect id="Frame" width="24.000000" height="24.000000" transform="matrix(1.80411e-16 -1 -1 -1.80411e-16 24 24)" fill="white" fill-opacity="0"/>
		</clipPath>
	</defs>
	<rect id="Frame" width="24.000000" height="24.000000" transform="matrix(1.80411e-16 -1 -1 -1.80411e-16 24 24)" fill="#FFFFFF" fill-opacity="0"/>
	<g clip-path="url(#clip11_99)">
		<path id="Vector" d="M20.19 8.71C20.24 8.85 20.26 9 20.23 9.14C20.2 9.29 20.13 9.42 20.03 9.53L12.53 17.03C12.46 17.1 12.37 17.15 12.28 17.19C12.19 17.23 12.09 17.25 11.99 17.25C11.9 17.25 11.8 17.23 11.71 17.19C11.62 17.15 11.53 17.1 11.46 17.03L3.96 9.53C3.86 9.42 3.79 9.29 3.76 9.14C3.73 9 3.74 8.85 3.8 8.71C3.86 8.57 3.95 8.45 4.08 8.37C4.2 8.29 4.35 8.25 4.49 8.25L19.49 8.25C19.64 8.25 19.79 8.29 19.91 8.37C20.03 8.45 20.13 8.57 20.19 8.71Z" fill="#FFFFFF" fill-opacity="0.700000" fill-rule="nonzero"/>
	</g>
</svg>
