<svg width="18.000000" height="18.000000" viewBox="0 0 18 18" fill="none" xmlns="http://www.w3.org/2000/svg" xmlns:xlink="http://www.w3.org/1999/xlink">
	<desc>
			Created with Pixso.
	</desc>
	<defs>
		<clipPath id="clip7_168">
			<rect id="TikTok - Negative" width="18.000000" height="18.000000" fill="white" fill-opacity="0"/>
		</clipPath>
	</defs>
	<rect id="TikTok - Negative" width="18.000000" height="18.000000" fill="#FFFFFF" fill-opacity="0"/>
	<g clip-path="url(#clip7_168)">
		<path id="Vector" d="M12.8 0L9.77 0L9.77 12.26C9.77 13.72 8.6 14.92 7.15 14.92C5.7 14.92 4.53 13.72 4.53 12.26C4.53 10.82 5.67 9.65 7.07 9.6L7.07 6.52C3.98 6.57 1.5 9.1 1.5 12.26C1.5 15.44 4.04 18 7.17 18C10.31 18 12.85 15.41 12.85 12.26L12.85 5.97C13.99 6.8 15.39 7.3 16.87 7.33L16.87 4.25C14.59 4.17 12.8 2.29 12.8 0Z" fill="#FFFFFF" fill-opacity="1.000000" fill-rule="nonzero"/>
	</g>
</svg>
