<svg width="20.000000" height="20.000000" viewBox="0 0 20 20" fill="none" xmlns="http://www.w3.org/2000/svg" xmlns:xlink="http://www.w3.org/1999/xlink">
	<desc>
			Created with Pixso.
	</desc>
	<defs>
		<clipPath id="clip7_170">
			<rect id="SVG" width="20.000000" height="20.000000" fill="white" fill-opacity="0"/>
		</clipPath>
	</defs>
	<g clip-path="url(#clip7_170)">
		<path id="Vector" d="M19.57 5.18C19.46 4.76 19.24 4.37 18.93 4.06C18.62 3.75 18.23 3.53 17.81 3.42C16.25 3 10 3 10 3C10 3 3.74 3 2.18 3.42C1.76 3.53 1.37 3.75 1.06 4.06C0.75 4.37 0.53 4.76 0.42 5.18C0.13 6.77 -0.01 8.38 0 10C-0.01 11.61 0.13 13.22 0.42 14.81C0.53 15.23 0.75 15.62 1.06 15.93C1.37 16.24 1.76 16.46 2.18 16.57C3.74 16.99 10 16.99 10 16.99C10 16.99 16.25 16.99 17.81 16.57C18.23 16.46 18.62 16.24 18.93 15.93C19.24 15.62 19.46 15.23 19.57 14.81C19.86 13.22 20.01 11.61 20 10C20.01 8.38 19.86 6.77 19.57 5.18ZM8 12.99L8 7L13.19 10L8 12.99Z" fill="#FFFFFF" fill-opacity="1.000000" fill-rule="nonzero"/>
	</g>
</svg>
